<?xml version="1.0" standalone="no"?>
<!DOCTYPE svg PUBLIC "-//W3C//DTD SVG 20010904//EN"
 "http://www.w3.org/TR/2001/REC-SVG-20010904/DTD/svg10.dtd">
<svg version="1.0" xmlns="http://www.w3.org/2000/svg"
 width="1280.000000pt" height="1280.000000pt" viewBox="0 0 1280.000000 1280.000000"
 preserveAspectRatio="xMidYMid meet">
<metadata>
Created by potrace 1.11, written by Peter Selinger 2001-2013
</metadata>
<g transform="translate(0.000000,1280.000000) scale(0.100000,-0.100000)"
fill="#000000" stroke="none">
<path d="M6900 6550 c0 -82 -3 -150 -6 -150 -3 0 -15 11 -25 24 -32 40 -101
66 -171 64 l-63 -1 70 -6 c86 -7 132 -33 173 -99 42 -68 56 -133 41 -196 -14
-64 -61 -139 -102 -165 -18 -11 -26 -21 -19 -21 7 0 33 19 57 41 l45 42 0 -47
c0 -44 1 -46 30 -46 l30 0 0 355 0 355 -30 0 -30 0 0 -150z"/>
<path d="M7168 6693 c-20 -5 -34 -44 -25 -68 4 -8 18 -17 33 -21 21 -6 31 -2
46 16 23 28 23 35 -2 60 -20 20 -22 21 -52 13z"/>
<path d="M10890 6345 l0 -355 34 0 35 0 3 169 c3 153 5 172 24 197 41 56 69
69 149 69 68 0 76 -2 104 -29 43 -42 51 -79 51 -253 l0 -153 30 0 30 0 0 175
c0 223 -14 264 -105 306 -80 37 -197 19 -257 -38 l-28 -27 0 147 0 147 -35 0
-35 0 0 -355z"/>
<path d="M1920 6651 c-85 -28 -135 -78 -145 -145 -15 -101 36 -161 172 -201
162 -49 181 -56 207 -82 31 -30 35 -86 10 -122 -54 -77 -239 -80 -348 -6 l-37
25 -11 -25 c-15 -34 7 -58 81 -86 76 -30 239 -33 291 -5 77 40 110 89 110 161
0 96 -46 134 -225 185 -60 17 -120 38 -132 46 -81 53 -62 163 35 195 49 16
167 6 224 -19 47 -20 48 -20 58 -2 16 30 12 37 -37 60 -52 25 -204 37 -253 21z"/>
<path d="M5020 6325 l0 -335 35 0 35 0 2 259 3 259 128 -219 c86 -146 134
-219 145 -219 11 0 61 76 147 224 l130 224 3 -264 2 -264 35 0 35 0 0 336 0
335 -31 -3 c-29 -3 -39 -17 -170 -243 -77 -132 -143 -241 -148 -243 -4 -1 -73
108 -152 243 -133 227 -145 245 -171 245 l-28 0 0 -335z"/>
<path d="M8329 6647 c-88 -33 -129 -88 -129 -174 0 -97 51 -137 239 -188 62
-17 114 -37 132 -52 56 -48 44 -134 -24 -169 -53 -28 -152 -30 -226 -4 -36 12
-76 30 -90 41 l-25 20 -13 -26 c-18 -32 -12 -40 47 -70 148 -75 362 -47 414
54 25 47 30 103 13 143 -23 55 -81 91 -199 122 -165 45 -200 70 -200 143 0 42
39 87 90 104 51 17 168 6 221 -19 25 -12 45 -21 46 -19 5 6 25 46 25 50 0 3
-24 15 -52 28 -65 28 -213 37 -269 16z"/>
<path d="M4380 6545 l0 -55 -45 0 c-43 0 -45 -1 -45 -30 0 -29 2 -30 45 -30
l45 0 0 -177 c0 -121 4 -186 13 -202 31 -61 115 -86 192 -57 42 16 43 19 33
42 -8 17 -16 23 -27 18 -32 -14 -84 -16 -106 -4 -37 20 -45 61 -45 226 l0 154
80 0 80 0 0 30 0 30 -80 0 -80 0 0 55 c0 54 0 55 -30 55 -30 0 -30 -1 -30 -55z"/>
<path d="M2390 6240 l0 -250 34 0 34 0 4 163 c3 140 6 167 23 196 35 59 67 76
145 76 62 0 72 -3 99 -29 43 -42 51 -79 51 -253 l0 -153 29 0 29 0 3 158 c4
172 16 214 72 256 37 28 133 34 176 11 58 -30 71 -76 71 -262 l0 -163 36 0 36
0 -4 178 c-3 157 -6 182 -26 222 -30 62 -79 93 -153 98 -82 6 -141 -13 -187
-59 l-38 -38 -28 35 c-66 84 -224 87 -308 7 l-28 -27 0 42 c0 41 -1 42 -35 42
l-35 0 0 -250z"/>
<path d="M3478 6476 c-44 -16 -88 -43 -88 -54 0 -5 6 -16 13 -25 11 -15 16
-15 63 9 38 18 67 25 113 25 91 1 132 -32 146 -117 l6 -42 -128 -3 c-146 -4
-184 -19 -216 -79 -59 -114 53 -227 201 -205 55 8 77 18 115 53 l27 26 0 -37
c0 -34 2 -37 30 -37 l30 0 0 183 c0 170 -2 186 -22 227 -32 63 -88 90 -183 90
-38 -1 -87 -7 -107 -14z m252 -293 c0 -44 -28 -95 -64 -118 -62 -41 -163 -38
-207 6 -27 27 -26 89 4 116 32 30 41 31 160 32 l107 1 0 -37z"/>
<path d="M3980 6240 l0 -250 35 0 35 0 0 155 c0 109 4 165 14 188 19 47 68 85
121 93 41 6 45 9 45 35 0 25 -4 29 -29 29 -42 0 -93 -24 -129 -61 l-32 -33 0
47 c0 46 -1 47 -30 47 l-30 0 0 -250z"/>
<path d="M6015 6471 c-181 -83 -192 -359 -18 -453 95 -52 229 -44 303 19 31
26 31 26 12 45 -19 19 -19 19 -56 -6 -69 -46 -178 -44 -247 4 -28 21 -69 93
-69 123 0 15 20 17 210 17 l210 0 0 38 c-1 85 -53 168 -130 207 -62 31 -155
34 -215 6z m185 -56 c37 -19 70 -58 85 -102 l13 -38 -175 -3 c-97 -1 -178 0
-181 3 -3 2 3 25 12 50 37 96 152 138 246 90z"/>
<path d="M7150 6240 l0 -250 35 0 35 0 0 250 0 250 -35 0 -35 0 0 -250z"/>
<path d="M7478 6476 c-20 -7 -51 -22 -68 -33 -30 -19 -31 -20 -13 -41 l18 -22
51 25 c54 28 138 35 185 17 42 -16 69 -59 69 -107 l0 -43 -122 -4 c-93 -3
-131 -8 -156 -21 -97 -53 -94 -195 6 -243 81 -38 185 -27 247 27 l35 31 0 -36
c0 -33 2 -36 30 -36 l30 0 0 183 c0 170 -2 186 -22 227 -32 63 -88 90 -182 90
-39 -1 -88 -7 -108 -14z m242 -305 c0 -95 -98 -159 -202 -130 -54 14 -78 41
-78 87 0 73 37 92 178 92 l102 0 0 -49z"/>
<path d="M8903 6466 c-162 -77 -180 -328 -32 -436 84 -60 224 -63 311 -5 40
27 47 45 23 65 -11 9 -20 8 -43 -9 -72 -51 -180 -52 -249 -2 -41 29 -73 83
-73 120 0 21 3 21 211 21 l212 0 -6 51 c-9 74 -54 148 -112 184 -68 42 -167
47 -242 11z m197 -51 c33 -17 66 -54 79 -88 22 -58 26 -57 -165 -57 l-176 0 6
33 c21 106 153 164 256 112z"/>
<path d="M9459 6472 c-26 -9 -56 -24 -68 -32 -20 -14 -21 -17 -6 -37 l15 -22
55 25 c60 28 139 34 187 15 37 -14 68 -67 68 -113 l0 -38 -102 0 c-125 0 -172
-12 -215 -55 -28 -28 -33 -40 -33 -79 0 -26 7 -60 15 -76 46 -89 212 -105 308
-29 l37 30 0 -36 c0 -32 2 -35 31 -35 l31 0 -4 193 c-3 187 -4 195 -28 230
-36 53 -91 77 -176 77 -39 -1 -89 -8 -115 -18z m251 -298 c0 -85 -61 -137
-162 -138 -92 -1 -146 56 -117 126 18 44 57 57 177 58 l102 0 0 -46z"/>
<path d="M9970 6240 l0 -250 29 0 29 0 4 158 c3 128 7 164 22 194 22 45 71 78
126 85 36 5 40 8 40 34 0 26 -4 29 -30 29 -44 0 -97 -25 -131 -61 l-29 -31 0
46 c0 44 -1 46 -30 46 l-30 0 0 -250z"/>
<path d="M10461 6476 c-48 -17 -108 -71 -132 -118 -26 -51 -35 -139 -20 -195
36 -133 183 -210 323 -169 51 15 118 62 118 83 0 4 -9 14 -21 21 -17 11 -24
10 -49 -12 -60 -50 -137 -58 -214 -21 -103 49 -128 212 -48 307 34 40 78 58
142 58 56 0 81 -10 121 -47 26 -24 26 -24 50 -4 l24 19 -25 27 c-40 43 -96 65
-170 64 -36 0 -80 -6 -99 -13z"/>
<path d="M6486 6371 c-4 -7 -5 -15 -2 -18 9 -9 19 4 14 18 -4 11 -6 11 -12 0z"/>
</g>
</svg>
